<svg version="1.1" preserveAspectRatio="none" xmlns="http://www.w3.org/2000/svg" width="500" height="500" viewBox="0 0 500 500"><rect width="100%" height="100%" fill="#FFFFFF" fill-opacity="1"/><svg viewBox="41.5941 91.2578 375.5792 192.289" width="333" height="170.4893055845478" x="83.5px" y="164.7553px" xmlns="http://www.w3.org/2000/svg" xmlns:xlink="http://www.w3.org/1999/xlink" preserveAspectRatio="none"><defs></defs><style>.companyName {fill:#1C1C1C;fill-opacity:1;}.icon1 {fill:#1C1C1C;fill-opacity:1;}.icon2 {fill:#BAAE57;fill-opacity:1;}.icon3 {fill:#E192BB;fill-opacity:1;}.icon3-str {stroke:#E192BB;stroke-opacity:1;}</style><g opacity="1" transform="rotate(0 41.5941 233.5468)">
<svg width="375.5792" height="50" x="41.5941" y="233.5468" version="1.1" preserveAspectRatio="none" viewBox="1.6 -27.24 270.71999999999997 36.04">
  <g transform="matrix(1 0 0 1 0 0)" class="companyName"><path id="id-D6z1nYkh14" d="M11.60-0.80L11.60 0L1.60 0L1.60-0.80L3.60-0.80L3.60-21.60L1.60-21.60L1.60-22.40L11.60-22.40L11.60-21.60L9.60-21.60L9.60-0.80L11.60-0.80Z M35.80-11.12L35.80-0.80L37.80-0.80L37.80 0L27.80 0L27.80-0.80L29.80-0.80L29.80-12Q29.80-14.84 28.96-16.04Q28.12-17.24 26.44-17.24L26.44-17.24Q24.16-17.24 22.80-14.84L22.80-14.84L22.80-0.80L24.80-0.80L24.80 0L14.80 0L14.80-0.80L16.80-0.80L16.80-17.60L14.80-17.60L14.80-18.40L22.80-18.40L22.80-16.32Q23.56-17.36 25.18-18.10Q26.80-18.84 28.68-18.84L28.68-18.84Q35.80-18.84 35.80-11.12L35.80-11.12Z M49.08 4.44Q48 6.76 46.80 7.78Q45.60 8.80 43.60 8.80Q41.60 8.80 40.48 7.94Q39.36 7.08 39.36 5.66Q39.36 4.24 40.18 3.40Q41 2.56 42.16 2.56Q43.32 2.56 44.12 3Q44.92 3.44 45.24 3.96L45.24 3.96Q46.12 5.36 46.90 5.36Q47.68 5.36 48.28 4L48.28 4L49.96 0.04L40.60-17.60L39-17.60L39-18.40L49.76-18.40L49.76-17.60L47.76-17.60L53.12-7.04L57.72-17.60L54.52-17.60L54.52-18.40L61.08-18.40L61.08-17.60L58.68-17.60L49.08 4.44Z M80.76-8L80.76-8L68.68-8Q69.08-0.96 74.16-0.96L74.16-0.96Q75.52-0.96 77.26-1.60Q79-2.24 79.80-3.40L79.80-3.40L80.36-3Q79.48-1.52 77.36-0.56Q75.24 0.40 73.14 0.40Q71.04 0.40 69.36-0.02Q67.68-0.44 66.08-1.44Q64.48-2.44 63.58-4.44Q62.68-6.44 62.68-9.28L62.68-9.28Q62.68-14.12 65.36-16.46Q68.04-18.80 71.86-18.80Q75.68-18.80 78.22-16.24Q80.76-13.68 80.76-8ZM68.64-9.24L68.64-8.80L75.16-8.80Q75.16-12.48 74.38-15.24Q73.60-18 71.88-18Q70.16-18 69.40-15.34Q68.64-12.68 68.64-9.24L68.64-9.24Z M83.28-9.20L83.28-9.20Q83.28-13.92 86.04-16.36Q88.80-18.80 93.06-18.80Q97.32-18.80 99.40-16.66Q101.48-14.52 100.88-12.24L100.88-12.24Q100.56-11 99.54-10.42Q98.52-9.84 97.32-10.12L97.32-10.12Q94.80-10.72 94.80-13.04L94.80-13.04Q94.80-13.64 94.94-14.86Q95.08-16.08 95.04-16.64Q95.00-17.20 94.80-17.52L94.80-17.52Q94.40-18.20 92.92-18.04L92.92-18.04Q89.32-17.48 89.32-9.22Q89.32-0.96 95.20-0.96L95.20-0.96Q96.56-0.96 97.96-1.68Q99.36-2.40 100.04-3.40L100.04-3.40L100.60-3Q99.68-1.48 97.84-0.56Q96.00 0.36 93.72 0.36L93.72 0.36Q83.28 0.36 83.28-9.20Z M103.40-9.20L103.40-9.20Q103.40-13.92 106.16-16.36Q108.92-18.80 113.18-18.80Q117.44-18.80 119.52-16.66Q121.60-14.52 121.00-12.24L121.00-12.24Q120.68-11 119.66-10.42Q118.64-9.84 117.44-10.12L117.44-10.12Q114.92-10.72 114.92-13.04L114.92-13.04Q114.92-13.64 115.06-14.86Q115.20-16.08 115.16-16.64Q115.12-17.20 114.92-17.52L114.92-17.52Q114.52-18.20 113.04-18.04L113.04-18.04Q109.44-17.48 109.44-9.22Q109.44-0.96 115.32-0.96L115.32-0.96Q116.68-0.96 118.08-1.68Q119.48-2.40 120.16-3.40L120.16-3.40L120.72-3Q119.80-1.48 117.96-0.56Q116.12 0.36 113.84 0.36L113.84 0.36Q103.40 0.36 103.40-9.20Z M130.52-2.42Q131.40-0.40 133.56-0.40Q135.72-0.40 136.64-2.44Q137.56-4.48 137.56-9.18Q137.56-13.88 136.64-15.94Q135.72-18 133.56-18Q131.40-18 130.52-15.94Q129.64-13.88 129.64-9.16Q129.64-4.44 130.52-2.42ZM133.48 0.40Q129.68 0.40 126.60-2.08Q123.52-4.56 123.52-9.12L123.52-9.12Q123.52-11.56 124.42-13.48Q125.32-15.40 126.82-16.52Q128.32-17.64 130.04-18.22Q131.76-18.80 133.56-18.80Q135.36-18.80 137.10-18.22Q138.84-17.64 140.34-16.52Q141.84-15.40 142.76-13.48Q143.68-11.56 143.68-9.16Q143.68-6.76 142.76-4.88Q141.84-3 140.32-1.88L140.32-1.88Q137.28 0.40 133.48 0.40Z M156.48-0.80L156.48 0L146.48 0L146.48-0.80L148.48-0.80L148.48-17.60L146.48-17.60L146.48-18.40L154.48-18.40L154.48-13.64Q154.84-15.60 155.78-16.84Q156.72-18.08 157.86-18.48Q159.00-18.88 160.06-18.88Q161.12-18.88 162.10-18.50Q163.08-18.12 163.56-16.98Q164.04-15.84 163.60-14.70Q163.16-13.56 162.06-13.08Q160.96-12.60 160.04-12.96Q159.12-13.32 158.72-13.94Q158.32-14.56 158.16-15.12L158.16-15.12Q157.76-16.60 157.08-16.60L157.08-16.60Q156.32-16.60 155.40-13.98Q154.48-11.36 154.48-8.44L154.48-8.44L154.48-0.80L156.48-0.80Z M173.36 0.48L173.36 0.48Q170.12 0.48 167.76-2.08Q165.40-4.64 165.40-9.32Q165.40-14 167.72-16.64Q170.04-19.28 173.36-19.28L173.36-19.28Q175.00-19.28 176.44-18.60Q177.88-17.92 178.52-16.56L178.52-16.56L178.52-26L176.52-26L176.52-26.80L184.52-26.80L184.52-0.80L186.52-0.80L186.52 0L178.52 0L178.52-1.84Q177.44 0.48 173.36 0.48ZM178.52-8.76L178.52-8.76L178.52-15.36Q177.44-17.52 175.70-17.52Q173.96-17.52 172.72-15.52Q171.48-13.52 171.48-9.18Q171.48-4.84 172.76-2.84Q174.04-0.84 175.84-1.12L175.84-1.12Q176.84-1.28 177.36-1.76L177.36-1.76Q178.52-2.88 178.52-8.76Z M197.32-18.40L197.32-0.80L199.32-0.80L199.32 0L189.32 0L189.32-0.80L191.32-0.80L191.32-17.60L189.72-17.60L189.72-18.40L197.32-18.40ZM197.68-23.70Q197.68-22.24 196.66-21.22Q195.64-20.20 194.18-20.20Q192.72-20.20 191.68-21.22Q190.64-22.24 190.64-23.70Q190.64-25.16 191.68-26.20Q192.72-27.24 194.18-27.24Q195.64-27.24 196.66-26.20Q197.68-25.16 197.68-23.70Z M219.80-8L219.80-8L207.72-8Q208.12-0.96 213.20-0.96L213.20-0.96Q214.56-0.96 216.30-1.60Q218.04-2.24 218.84-3.40L218.84-3.40L219.40-3Q218.52-1.52 216.40-0.56Q214.28 0.40 212.18 0.40Q210.08 0.40 208.40-0.02Q206.72-0.44 205.12-1.44Q203.52-2.44 202.62-4.44Q201.72-6.44 201.72-9.28L201.72-9.28Q201.72-14.12 204.40-16.46Q207.08-18.80 210.90-18.80Q214.72-18.80 217.26-16.24Q219.80-13.68 219.80-8ZM207.68-9.24L207.68-8.80L214.20-8.80Q214.20-12.48 213.42-15.24Q212.64-18 210.92-18Q209.20-18 208.44-15.34Q207.68-12.68 207.68-9.24L207.68-9.24Z M231.52-0.32L231.52-0.32Q235.68-0.32 235.68-2.60L235.68-2.60Q235.68-3.88 234.24-4.70Q232.80-5.52 230.76-6.04Q228.72-6.56 226.74-7.24Q224.76-7.92 223.46-9.40Q222.16-10.88 222.40-13.28Q222.64-15.68 224.86-17.24Q227.08-18.80 230.34-18.80Q233.60-18.80 235.60-17.76Q237.60-16.72 237.84-14.96L237.84-14.96Q238.00-13.88 237.50-12.96Q237.00-12.04 235.86-12Q234.72-11.96 233.98-12.60Q233.24-13.24 233.28-14.08Q233.32-14.92 233.92-15.58Q234.52-16.24 234.52-16.64L234.52-16.64Q234.52-17.32 233.22-17.66Q231.92-18 230.22-18Q228.52-18 227.44-17.24Q226.36-16.48 226.36-15.36Q226.36-14.24 227.70-13.44Q229.04-12.64 230.96-12.14Q232.88-11.64 234.78-11.02Q236.68-10.40 238.02-9.04Q239.36-7.68 239.36-5.60L239.36-5.60Q239.36-2.84 237.40-1.18Q235.44 0.48 231.48 0.48Q227.52 0.48 225.06-0.72Q222.60-1.92 222.36-3.80L222.36-3.80Q222.20-4.88 222.72-5.80Q223.24-6.72 224.36-6.76Q225.48-6.80 226.22-6.16Q226.96-5.52 226.92-4.68Q226.88-3.84 226.28-3.18Q225.68-2.52 225.68-2.12L225.68-2.12Q225.68-1.32 227.54-0.82Q229.40-0.32 231.52-0.32Z M259.40-8L259.40-8L247.32-8Q247.72-0.96 252.80-0.96L252.80-0.96Q254.16-0.96 255.90-1.60Q257.64-2.24 258.44-3.40L258.44-3.40L259.00-3Q258.12-1.52 256.00-0.56Q253.88 0.40 251.78 0.40Q249.68 0.40 248.00-0.02Q246.32-0.44 244.72-1.44Q243.12-2.44 242.22-4.44Q241.32-6.44 241.32-9.28L241.32-9.28Q241.32-14.12 244.00-16.46Q246.68-18.80 250.50-18.80Q254.32-18.80 256.86-16.24Q259.40-13.68 259.40-8ZM247.28-9.24L247.28-8.80L253.80-8.80Q253.80-12.48 253.02-15.24Q252.24-18 250.52-18Q248.80-18 248.04-15.34Q247.28-12.68 247.28-9.24L247.28-9.24Z M270.32-26.80L270.32-0.80L272.32-0.80L272.32 0L262.32 0L262.32-0.80L264.32-0.80L264.32-26L262.32-26L262.32-26.80L270.32-26.80Z"/></g>
</svg>
</g><g opacity="1" transform="rotate(0 154.2679 91.2578)">
<svg width="150.2317" height="102.289" x="154.2679" y="91.2578" version="1.1" preserveAspectRatio="none" viewBox="5 10.85099983215332 39.999996185302734 27.23499870300293">
  <g transform="matrix(1 0 0 1 0 0)" class="icon1"><path d="M43.587,18.382h-2.77c-1.121-1.459-1.121-1.459-2.286-3.436c-1.838-3.114-5.114-3.88-5.114-3.88l-8.415-0.215l-8.415,0.215  c0,0-3.181,0.828-5.118,3.88c-1.434,2.26-0.931,1.367-2.286,3.436H6.41c-0.779,0-1.41,0.631-1.41,1.411v0.235  c0,0.779,0.631,1.411,1.41,1.411h1.605l-0.898,2.424c0,0-0.351,0.871-0.351,2.928c0,1.443,0,6.404,0,9.252  c0,1.127,0.911,2.043,2.042,2.043h3.324c1.126,0,2.042-0.916,2.042-2.043v-1.251h10.536h0.581h10.532v1.251  c0,1.127,0.914,2.043,2.046,2.043h3.323c1.127,0,2.043-0.916,2.043-2.043c0-2.848,0-7.809,0-9.252c0-2.057-0.352-2.928-0.352-2.928  l-0.903-2.424h1.607c0.778,0,1.413-0.632,1.413-1.411v-0.235C45,19.013,44.365,18.382,43.587,18.382z M14.138,29.018l-4.296-0.175  c-0.581-0.217-1.078-0.631-1.246-1.247c-0.171-0.652-0.255-1.668-0.057-2.316c0.375-1.227,1.862-0.589,2.65-0.302  c1.272,0.447,2.527,0.938,3.799,1.389c0.734,0.264,1.333,0.927,1.174,1.764C15.986,29.074,14.891,29.041,14.138,29.018z M25,21.315  c-6.44-0.07-13.472-1.288-13.472-1.288l2.058-4.192c0.866-2.38,4.054-2.583,4.054-2.583l7.362-0.081l7.361,0.081  c0,0,3.183,0.202,4.051,2.583l2.059,4.192C38.473,20.028,31.435,21.245,25,21.315z M41.398,27.596  c-0.162,0.616-0.665,1.03-1.24,1.247l-4.297,0.175c-0.757,0.023-1.848,0.057-2.029-0.888c-0.153-0.837,0.44-1.5,1.18-1.764  c1.269-0.451,2.526-0.941,3.799-1.389c0.782-0.287,2.271-0.925,2.65,0.302C41.658,25.928,41.569,26.943,41.398,27.596z"></path></g>
</svg>
</g></svg></svg>